<svg width="32" height="32" viewBox="0 0 32 32" fill="none" xmlns="http://www.w3.org/2000/svg">
<path d="M15.8867 7.13419C17.8568 7.13419 19.4538 5.53715 19.4538 3.56709C19.4538 1.59704 17.8568 0 15.8867 0C13.9167 0 12.3196 1.59704 12.3196 3.56709C12.3196 5.53715 13.9167 7.13419 15.8867 7.13419Z" fill="black"/>
<path d="M17.2803 10.8324H18.17C18.4565 10.8324 18.7068 10.9967 18.8241 11.2467C20.5902 11.9257 21.0084 14.0882 21.0921 15.4445H23.0219C22.1818 11.5409 19.9799 8.36264 16.8241 7.32244L15.9352 8.21696L15.0739 7.31274C15.0705 7.31351 15.0682 7.31351 15.0649 7.31427C14.6241 7.4199 9.98716 9.47479 8.97809 15.4443H11.8226C11.9675 14.8398 12.1214 14.3094 12.2844 13.8484V15.4443H19.9496C19.9702 14.5556 19.6493 13.7101 19.5947 13.5736C19.6056 13.6029 19.1477 12.5255 18.4027 12.2418C18.3274 12.2683 18.2493 12.2813 18.17 12.2813H17.2803C16.881 12.2813 16.5555 11.9563 16.5555 11.5567C16.5557 11.1574 16.8805 10.8324 17.2803 10.8324ZM16.8042 14.0997L15.9436 15.2769H15.927L15.0672 14.0997L15.927 8.34937H15.9436L16.8042 14.0997Z" fill="black"/>
<path d="M24.4767 15.8221H7.52301V17.6686H24.4767V15.8221Z" fill="black"/>
<path d="M10.0913 31.9999H21.909L23.0816 18.0883H8.91864L10.0913 31.9999Z" fill="black"/>
</svg>
