<svg width="32" height="32" viewBox="0 0 32 32" fill="none" xmlns="http://www.w3.org/2000/svg">
<g clip-path="url(#clip0_126_1527)">
<path d="M16.682 14.8248C20.7772 14.8248 24.0923 11.5046 24.0923 7.41188C24.0923 3.31792 20.7772 0 16.682 0C12.5885 0 9.27008 3.31817 9.27008 7.41188C9.27008 11.5048 12.5885 14.8248 16.682 14.8248Z" fill="black"/>
<path d="M18.5904 15.1235L16.7447 16.9827L14.9548 15.104C14.9487 15.1056 14.942 15.1056 14.9379 15.1071C14.6392 15.1788 13.3715 15.5822 11.7267 16.7618C11.7121 16.7721 11.3781 17.0037 11.2217 17.1017C10.9113 17.2978 10.4477 17.5817 9.88695 17.8496C9.32948 18.122 8.66912 18.3685 8.06815 18.4975C7.7715 18.5563 7.50351 18.5725 7.28826 18.5655C7.06583 18.5614 6.93786 18.5133 6.8022 18.4539C6.72926 18.4371 6.67525 18.3685 6.59539 18.3306C6.53294 18.2476 6.44259 18.208 6.37476 18.0902C6.33842 18.0383 6.2967 17.9948 6.25779 17.9385L6.15259 17.7437C6.0712 17.628 6.01975 17.4555 5.95398 17.307C5.88205 17.1642 5.84494 16.9763 5.79145 16.8118C5.73565 16.6487 5.69828 16.4698 5.66577 16.2904C5.58336 15.9454 5.54471 15.5852 5.50452 15.2545C5.45512 14.9284 5.45819 14.6011 5.43388 14.3249C5.43311 14.317 5.43362 14.3101 5.43311 14.3021C5.59001 14.0774 5.80322 13.8747 6.0625 13.6866C6.32152 13.5005 6.52526 13.1908 6.66041 12.8946C7.18613 11.7267 7.4147 11.0579 7.79197 9.83294C7.95118 9.31694 6.99954 8.74591 6.3786 10.2064C6.11599 10.7354 6.23066 10.7897 5.9637 11.3167L5.86823 11.4961C5.86823 11.4961 5.8132 10.9873 5.80603 10.8335C5.72336 9.06994 5.64786 8.12394 5.56314 6.36043C5.5401 5.8713 5.33636 5.65348 4.95883 5.67959C4.59947 5.70544 4.44155 5.92684 4.46075 6.40215C4.49939 7.36479 4.54547 7.50863 4.58437 8.4705C4.60254 8.83319 4.36656 8.76434 4.36809 8.46897C4.30564 7.15695 4.246 6.86721 4.19328 5.55494C4.17843 5.19866 4.03023 4.96497 3.66499 4.92581C3.31203 4.88844 3.07092 5.18151 3.08884 5.62763C3.14131 6.89588 3.20402 7.14159 3.25623 8.4101C3.27466 8.78532 3.04379 8.7262 3.04302 8.44414C2.99618 7.43876 2.96649 7.24961 2.8938 6.24601C2.87972 6.04381 2.75687 5.77813 2.59792 5.67217C2.21015 5.41391 1.78629 5.74307 1.80421 6.27852C1.84158 7.40139 1.90224 7.70597 1.94857 8.82781C1.97647 9.11576 1.75097 9.19306 1.73869 8.85776C1.70388 8.14339 1.677 8.24629 1.63784 7.53269C1.61993 7.20737 1.43462 7.02155 1.10751 7.00901C0.777072 6.99698 0.59509 7.1892 0.541339 7.49993C0.518304 7.62714 0.530589 7.76151 0.536476 7.89179C0.611727 9.58313 0.65703 10.4587 0.781935 12.1462C0.826471 12.7372 0.89737 13.1498 0.99412 13.6269C1.09087 14.104 1.35706 14.329 1.42079 14.5653C1.40595 14.8386 1.38803 15.1258 1.39878 15.4552C1.40467 15.8929 1.40723 16.3659 1.46789 16.8924C1.48888 17.1514 1.51652 17.4202 1.57437 17.7068C1.6294 17.992 1.66267 18.2748 1.75865 18.5842C1.84772 18.8906 1.91632 19.1954 2.06068 19.5225C2.12697 19.6838 2.19377 19.8461 2.26109 20.0089C2.34094 20.1734 2.43769 20.3398 2.53009 20.5052C2.69877 20.8369 2.96905 21.1645 3.21912 21.4849C3.51654 21.7903 3.816 22.1003 4.18764 22.3452C4.90124 22.8551 5.7528 23.197 6.53294 23.3265C7.31692 23.467 8.05125 23.4681 8.70803 23.4054C8.88438 23.3856 9.10015 23.3624 9.26908 23.3365L9.27394 32H24.6009V28.6826C24.939 29.6393 25.2577 30.7438 25.5595 32H31.4725C29.7241 23.8896 25.1481 17.2855 18.5904 15.1235ZM16.7616 31.6516H16.7288L14.9405 29.2055L16.7288 17.2581H16.7616L18.5512 29.2055L16.7616 31.6516Z" fill="black"/>
</g>
<defs>
<clipPath id="clip0_126_1527">
<rect width="32" height="32" fill="white"/>
</clipPath>
</defs>
</svg>
