<svg width="32" height="32" viewBox="0 0 32 32" fill="none" xmlns="http://www.w3.org/2000/svg">
<path d="M12 2.66669H5.33335C3.86059 2.66669 2.66669 3.86059 2.66669 5.33335V14.6667C2.66669 16.1394 3.86059 17.3334 5.33335 17.3334H12C13.4728 17.3334 14.6667 16.1394 14.6667 14.6667V5.33335C14.6667 3.86059 13.4728 2.66669 12 2.66669Z" fill="black"/>
<path d="M26.6666 2.66669H20C18.5272 2.66669 17.3333 3.86059 17.3333 5.33335V9.33335C17.3333 10.8061 18.5272 12 20 12H26.6666C28.1394 12 29.3333 10.8061 29.3333 9.33335V5.33335C29.3333 3.86059 28.1394 2.66669 26.6666 2.66669Z" fill="black"/>
<path d="M12 20H5.33335C3.86059 20 2.66669 21.1939 2.66669 22.6667V26.6667C2.66669 28.1394 3.86059 29.3333 5.33335 29.3333H12C13.4728 29.3333 14.6667 28.1394 14.6667 26.6667V22.6667C14.6667 21.1939 13.4728 20 12 20Z" fill="black"/>
<path d="M26.6666 14.6667H20C18.5272 14.6667 17.3333 15.8606 17.3333 17.3334V26.6667C17.3333 28.1394 18.5272 29.3334 20 29.3334H26.6666C28.1394 29.3334 29.3333 28.1394 29.3333 26.6667V17.3334C29.3333 15.8606 28.1394 14.6667 26.6666 14.6667Z" fill="black"/>
</svg>
