<svg width="32" height="32" viewBox="0 0 32 32" fill="none" xmlns="http://www.w3.org/2000/svg">
<path fill-rule="evenodd" clip-rule="evenodd" d="M4 13.3333C4 8.30497 4 5.79083 5.56209 4.22872C7.1242 2.66663 9.63835 2.66663 14.6667 2.66663H17.3333C22.3616 2.66663 24.8759 2.66663 26.4379 4.22872C28 5.79083 28 8.30497 28 13.3333V18.6666C28 23.6949 28 26.2092 26.4379 27.7712C24.8759 29.3333 22.3616 29.3333 17.3333 29.3333H14.6667C9.63835 29.3333 7.1242 29.3333 5.56209 27.7712C4 26.2092 4 23.6949 4 18.6666V13.3333ZM8 16C8 14.1144 8 13.1715 8.58579 12.5857C9.17157 12 10.1144 12 12 12H20C21.8856 12 22.8284 12 23.4143 12.5857C24 13.1715 24 14.1144 24 16V21.3333C24 23.2189 24 24.1617 23.4143 24.7476C22.8284 25.3333 21.8856 25.3333 20 25.3333H12C10.1144 25.3333 9.17157 25.3333 8.58579 24.7476C8 24.1617 8 23.2189 8 21.3333V16ZM9.33333 6.99996C8.78105 6.99996 8.33333 7.44768 8.33333 7.99996C8.33333 8.55224 8.78105 8.99996 9.33333 8.99996H16C16.5523 8.99996 17 8.55224 17 7.99996C17 7.44768 16.5523 6.99996 16 6.99996H9.33333Z" fill="black"/>
</svg>
