<svg width="32" height="32" viewBox="0 0 32 32" fill="none" xmlns="http://www.w3.org/2000/svg">
<path d="M7.66669 1.33337C8.21897 1.33337 8.66669 1.78109 8.66669 2.33337V4.80004L10.9609 4.3412C13.1616 3.90105 15.4428 4.11049 17.5266 4.944L18.0776 5.16443C19.9775 5.92435 22.0684 6.06627 24.0535 5.56999C24.8948 5.35967 25.5704 6.27151 25.1243 7.01513L23.4196 9.85632C22.9643 10.6152 22.7366 10.9946 22.6826 11.4074C22.6602 11.5795 22.6602 11.7539 22.6826 11.9261C22.7366 12.3388 22.9643 12.7182 23.4196 13.4771L25.5004 16.9452C25.9148 17.6359 25.5443 18.5307 24.7628 18.726L24.6294 18.7594C22.2699 19.3492 19.7847 19.1806 17.5266 18.2774C15.4428 17.4438 13.1616 17.2344 10.9609 17.6746L8.66669 18.1334V29C8.66669 29.5523 8.21897 30 7.66669 30C7.11441 30 6.66669 29.5523 6.66669 29V2.33337C6.66669 1.78109 7.11441 1.33337 7.66669 1.33337Z" fill="black"/>
</svg>
